<?xml version="1.0" encoding="iso-8859-1"?>
<!-- Uploaded to: SVG Repo, www.svgrepo.com, Generator: SVG Repo Mixer Tools -->
<svg height="800px" width="800px" version="1.1" id="Layer_1" xmlns="http://www.w3.org/2000/svg" xmlns:xlink="http://www.w3.org/1999/xlink" 
	 viewBox="0 0 512 512" xml:space="preserve">
<path style="fill:#F4B2B0;" d="M81.752,139.362c14.378-14.38,33.499-22.299,53.834-22.299c16.108,0,31.452,4.969,44.282,14.18
	V91.743c0-41.98,34.153-76.133,76.133-76.133v326.061l-50.868,48.925c-12.163,12.096-28.302,18.755-45.462,18.755
	c-17.224,0-33.416-6.706-45.595-18.885c-25.14-25.14-25.14-66.047,0-91.189l13.506-11.92L82.59,247.816l-0.838-0.787
	C52.068,217.345,52.068,169.046,81.752,139.362z"/>
<g>
	<path style="fill:#B3404A;" d="M441.288,128.325c-17.327-17.329-40.364-26.871-64.873-26.871c-8.62,0-15.61,6.989-15.61,15.61
		s6.99,15.61,15.61,15.61c16.167,0,31.367,6.295,42.796,17.727c11.409,11.408,17.692,26.606,17.692,42.796
		s-6.283,31.387-17.724,42.827l-45.064,39.612c-3.372,2.963-5.304,7.235-5.304,11.725c0,4.489,1.933,8.762,5.304,11.726
		l12.486,10.974l0.457,0.428c9.104,9.191,14.115,21.393,14.115,34.386c0,13.073-5.073,25.346-14.285,34.557
		c-9.229,9.23-21.501,14.313-34.556,14.313c-13.003,0-25.24-5.048-34.457-14.213c-6.111-6.079-15.997-6.052-22.076,0.062
		c-6.08,6.113-6.052,15.997,0.062,22.076c15.107,15.023,35.161,23.296,56.471,23.296c21.393,0,41.507-8.331,56.63-23.457
		c15.109-15.107,23.431-35.219,23.431-56.631c0-21.412-8.32-41.526-23.427-56.633c-0.123-0.122-0.247-0.242-0.373-0.361
		l-0.542-0.507l32.097-28.21c0.262-0.231,0.517-0.47,0.763-0.718l0.375-0.376c17.305-17.304,26.835-40.344,26.835-64.872
		S458.593,145.628,441.288,128.325z"/>
	<path style="fill:#B3404A;" d="M271.611,33.301c20.182,5.442,36.722,21.167,42.621,41.914c2.359,8.292,10.993,13.101,19.285,10.744
		c8.294-2.359,13.103-10.993,10.746-19.285C333.1,27.417,296.805,0,256.001,0c-50.586,0-91.741,41.156-91.743,91.743v14.253
		c-9.151-3-18.798-4.544-28.671-4.544c-24.508,0-47.546,9.542-64.873,26.871c-17.305,17.304-26.835,40.342-26.835,64.872
		s9.53,47.567,26.835,64.873c0.116,0.116,0.233,0.228,0.353,0.34l0.838,0.787c0.125,0.117,0.251,0.233,0.381,0.347l31.677,27.842
		l-0.217,0.192c-0.244,0.215-0.481,0.437-0.709,0.667c-0.963,0.963-1.897,1.948-2.805,2.952c-0.18,0.2-0.347,0.407-0.524,0.607
		c-0.726,0.818-1.442,1.641-2.131,2.484c-0.105,0.128-0.2,0.259-0.303,0.387c-0.752,0.932-1.486,1.873-2.192,2.833
		c-0.008,0.009-0.014,0.02-0.022,0.03c-10.026,13.637-15.449,30.063-15.449,47.339c0,17.286,5.429,33.721,15.466,47.362l0.002,0.002
		c0.713,0.969,1.455,1.92,2.213,2.86c0.097,0.12,0.186,0.243,0.283,0.362c0.699,0.855,1.425,1.691,2.162,2.519
		c0.167,0.189,0.323,0.384,0.493,0.571c0.909,1.004,1.844,1.989,2.807,2.953c15.124,15.126,35.238,23.457,56.631,23.457
		c21.264,0,41.279-8.237,56.375-23.201l46.58-44.802l4.198-4.037l0,0l0.002-0.002c1.962-1.887,3.32-4.163,4.077-6.591
		c0.014-0.045,0.023-0.092,0.036-0.137c0.133-0.442,0.251-0.887,0.345-1.336c0.031-0.153,0.048-0.309,0.076-0.464
		c0.061-0.347,0.122-0.693,0.159-1.043c0.022-0.197,0.027-0.396,0.041-0.595c0.022-0.314,0.045-0.628,0.048-0.943
		c0-0.047,0.008-0.094,0.008-0.14V33.301H271.611z M125.113,379.428c-0.585-0.585-1.154-1.183-1.703-1.79
		c-0.133-0.147-0.254-0.298-0.386-0.446c-0.415-0.471-0.829-0.943-1.224-1.425c-0.094-0.114-0.178-0.233-0.27-0.347
		c-0.423-0.528-0.841-1.058-1.239-1.6c-0.037-0.05-0.072-0.103-0.109-0.155c-4.752-6.508-7.697-13.933-8.829-21.579
		c-0.347-2.366-0.524-4.777-0.524-7.215c0-1.586,0.076-3.158,0.225-4.716c0.022-0.228,0.053-0.454,0.078-0.682
		c0.058-0.528,0.117-1.054,0.19-1.578c0.064-0.445,0.142-0.888,0.217-1.333c0.052-0.301,0.097-0.603,0.155-0.902
		c0.116-0.612,0.248-1.219,0.389-1.828c0.03-0.131,0.056-0.265,0.087-0.396c0.173-0.727,0.364-1.45,0.571-2.171
		c0.005-0.014,0.008-0.028,0.011-0.042c1.086-3.759,2.632-7.412,4.636-10.869c0.002-0.003,0.003-0.006,0.005-0.008
		c0.375-0.645,0.766-1.282,1.172-1.912c0.034-0.055,0.067-0.111,0.103-0.164c0.368-0.568,0.757-1.127,1.152-1.683
		c0.08-0.111,0.153-0.226,0.234-0.336c0.362-0.5,0.741-0.99,1.124-1.478c0.122-0.156,0.237-0.315,0.361-0.47
		c0.359-0.446,0.737-0.884,1.113-1.321c0.159-0.184,0.309-0.373,0.471-0.554c0.426-0.479,0.869-0.946,1.317-1.411
		c0.12-0.125,0.233-0.254,0.354-0.378l13.114-11.575c3.361-2.967,5.286-7.237,5.281-11.72c-0.005-4.485-1.937-8.749-5.304-11.709
		l-44.794-39.37l-0.465-0.437c-11.303-11.391-17.527-26.52-17.527-42.631c0-16.189,6.283-31.387,17.692-42.796
		c11.43-11.431,26.629-17.727,42.796-17.727c12.763,0,24.928,3.89,35.175,11.25c4.759,3.415,11.025,3.881,16.23,1.208
		c5.209-2.672,8.486-8.034,8.486-13.888V91.743c0-0.968,0.028-1.931,0.073-2.888c0.014-0.308,0.039-0.612,0.059-0.916
		c0.041-0.652,0.087-1.302,0.148-1.948c0.033-0.353,0.073-0.702,0.112-1.054c0.067-0.604,0.144-1.205,0.229-1.803
		c0.05-0.351,0.101-0.701,0.158-1.049c0.1-0.618,0.212-1.233,0.331-1.845c0.059-0.311,0.116-0.621,0.18-0.93
		c0.165-0.788,0.348-1.572,0.543-2.349c0.03-0.12,0.055-0.244,0.086-0.364c0.231-0.894,0.485-1.781,0.757-2.658
		c0.083-0.268,0.175-0.532,0.261-0.798c0.198-0.612,0.401-1.221,0.618-1.825c0.116-0.318,0.236-0.635,0.356-0.952
		c0.209-0.551,0.425-1.097,0.648-1.641c0.131-0.318,0.265-0.637,0.401-0.954c0.239-0.551,0.489-1.097,0.743-1.639
		c0.134-0.286,0.265-0.574,0.404-0.859c0.315-0.646,0.645-1.283,0.983-1.915c0.091-0.169,0.173-0.34,0.265-0.509
		c0.432-0.795,0.885-1.577,1.352-2.348c0.126-0.209,0.261-0.412,0.39-0.618c0.35-0.562,0.704-1.121,1.072-1.67
		c0.181-0.27,0.368-0.537,0.553-0.804c0.334-0.482,0.671-0.96,1.018-1.431c0.201-0.275,0.406-0.546,0.612-0.818
		c0.356-0.467,0.72-0.927,1.088-1.383c0.203-0.251,0.403-0.503,0.609-0.751c0.431-0.517,0.874-1.024,1.322-1.525
		c0.151-0.17,0.298-0.343,0.451-0.512c0.606-0.665,1.227-1.316,1.862-1.953c0.142-0.144,0.292-0.279,0.436-0.421
		c0.498-0.489,1.001-0.972,1.516-1.445c0.233-0.214,0.471-0.421,0.707-0.632c0.442-0.393,0.887-0.78,1.339-1.161
		c0.259-0.217,0.52-0.431,0.782-0.645c0.454-0.368,0.915-0.731,1.38-1.085c0.259-0.198,0.517-0.396,0.779-0.59
		c0.52-0.384,1.049-0.757,1.581-1.125c0.212-0.147,0.42-0.298,0.634-0.442c0.749-0.504,1.509-0.993,2.281-1.464
		c0.122-0.075,0.248-0.142,0.37-0.215c0.652-0.392,1.313-0.773,1.982-1.141c0.268-0.147,0.54-0.287,0.81-0.429
		c0.537-0.284,1.076-0.564,1.622-0.832c0.304-0.15,0.61-0.295,0.916-0.439c0.534-0.251,1.071-0.495,1.613-0.731
		c0.306-0.133,0.61-0.267,0.918-0.395c0.59-0.245,1.186-0.478,1.784-0.706c0.261-0.098,0.518-0.203,0.78-0.298
		c0.865-0.314,1.736-0.612,2.618-0.888c0.039-0.012,0.08-0.022,0.119-0.034c0.746-0.231,1.502-0.44,2.259-0.643v301.754
		l-21.056,20.252l-25.024,24.067c-0.061,0.061-0.123,0.122-0.186,0.183c-9.216,9.166-21.454,14.214-34.456,14.214
		C146.616,393.742,134.343,388.658,125.113,379.428z"/>
	<path style="fill:#B3404A;" d="M256.001,512c-8.62,0-15.61-6.989-15.61-15.61v-154.72c0-8.621,6.99-15.61,15.61-15.61
		c8.62,0,15.61,6.989,15.61,15.61v154.72C271.611,505.011,264.622,512,256.001,512z"/>
</g>
</svg>